#N canvas 827 239 527 327 12;
#X listbox 406 117 24 0 0 1 b1_n+1\ b2_n+1\ -a1_n+1\ -a2_n+2\ ... - - 16;
#X listbox 41 117 12 0 0 1 b1_n\ b2_n\ -a1_n\ -a2_n - - 16;
#X obj 41 78 list split 4, f 108;
#X obj 41 191 unpack f f f f, f 17;
#X obj 107 251 pack f f 1 f f, f 15;
#X listbox 107 281 40 0 0 1 a1_n\ a2_n\ 1\ b1_n\ b2_n - - 16;
#X obj 41 47 inlet;
#X obj 107 327 outlet;
#X obj 406 327 outlet;
#X text 462 326 rest of the coefficients, f 22;
#X obj 41 159 t l l, f 23;
#X obj 181 191 unpack f f f f;
#X obj 107 224 * -1;
#X obj 141 224 * -1;
#X text 97 45 partial list of biquad filters \, in the format: b1_n b2_n -a1_n -a2_n b1_n+1 b2_n+1 -a1_n+1 -a2_n+2 ..., f 84;
#X text 163 326 coeffiients for biquad~: fb1 fb2 ff1 ff2 ff3 \, where ff1 = 1 because the overall gain is applied at the whole \, and not at every biquad., f 22;
#X connect 0 0 8 0;
#X connect 1 0 10 0;
#X connect 2 0 1 0;
#X connect 2 1 0 0;
#X connect 3 2 12 0;
#X connect 3 3 13 0;
#X connect 4 0 5 0;
#X connect 5 0 7 0;
#X connect 6 0 2 0;
#X connect 10 0 3 0;
#X connect 10 1 11 0;
#X connect 11 0 4 3;
#X connect 11 1 4 4;
#X connect 12 0 4 0;
#X connect 13 0 4 1;
