#N canvas 827 239 527 327 12;
#X obj 41 78 list split 4, f 108;
#X obj 41 171 unpack f f f f, f 17;
#X obj 107 231 pack f f 1 f f, f 15;
#X obj 41 47 inlet;
#X obj 107 307 outlet;
#X obj 406 307 outlet;
#X text 462 306 rest of the coefficients, f 22;
#X obj 41 139 t l l, f 23;
#X obj 181 171 unpack f f f f;
#X obj 107 204 * -1;
#X obj 141 204 * -1;
#X text 97 45 partial list of biquad filters \, in the format: b1_n b2_n -a1_n -a2_n b1_n+1 b2_n+1 -a1_n+1 -a2_n+2 ..., f 84;
#X text 163 306 coeffiients for biquad~: fb1 fb2 ff1 ff2 ff3 \, where ff1 = 1 because the overall gain is applied at the whole \, and not at every biquad., f 22;
#X text 61 107 b1_n b2_n -a1_n -a2_n;
#X text 436 107 b1_n+1 b2_n+1 -a1_n+1 -a2_n+2 ...;
#X text 133 265 a1_n a2_n 1 b1_n b2_n;
#X connect 0 0 7 0;
#X connect 0 1 5 0;
#X connect 1 2 9 0;
#X connect 1 3 10 0;
#X connect 2 0 4 0;
#X connect 3 0 0 0;
#X connect 7 0 1 0;
#X connect 7 1 8 0;
#X connect 8 0 2 3;
#X connect 8 1 2 4;
#X connect 9 0 2 0;
#X connect 10 0 2 1;
