#N canvas 827 239 527 327 12;
#X obj 107 210 list split 1, f 9;
#X listbox 107 254 7 0 0 1 Gain - - 16;
#X obj 32 294 *~ 1, f 14;
#X obj 32 156 inlet~;
#X obj 764 574 outlet~;
#X obj 224 254 route_biquad_coeffs;
#X obj 332 294 route_biquad_coeffs;
#X obj 440 334 route_biquad_coeffs;
#X obj 548 374 route_biquad_coeffs;
#X obj 656 414 route_biquad_coeffs;
#X obj 764 454 route_biquad_coeffs;
#X obj 224 334 biquad~ 0 0 1 0 0;
#X obj 332 374 biquad~ 0 0 1 0 0;
#X obj 440 414 biquad~ 0 0 1 0 0;
#X obj 548 454 biquad~ 0 0 1 0 0;
#X obj 656 494 biquad~ 0 0 1 0 0;
#X obj 764 534 biquad~ 0 0 1 0 0;
#X text 107 48 Parameters for a given azimuth and elevation \, from "https://github.com/Ircam-RnD/binauralModeled/blob/gh-pages/examples/snd/complete_hrtf_modeled.js#L5167", f 93;
#X obj 107 114 loadbang;
#X text 107 88 In the format: b1_n b2_n -a1_n -a2_n b1_n+1 b2_n+1 -a1_n+1 -a2_n+2 ..., f 62;
#X msg 107 141 0.5464 -0.85287 0.31884 -1.2673 0.50382 -1.9522 0.9589 -1.9329 0.94061 -0.88747 0.77594 0.12334 0.46771 0.39241 0.82353 -0.17627 0.57129 -1.98 0.98055 -1.9819 0.98243 -1.9452 0.9891 -1.9433 0.98716, f 93;
#X connect 0 0 1 0;
#X connect 0 1 5 0;
#X connect 1 0 2 1;
#X connect 2 0 11 0;
#X connect 3 0 2 0;
#X connect 3 1 0 0;
#X connect 5 0 11 0;
#X connect 5 1 6 0;
#X connect 6 0 12 0;
#X connect 6 1 7 0;
#X connect 7 0 13 0;
#X connect 7 1 8 0;
#X connect 8 0 14 0;
#X connect 8 1 9 0;
#X connect 9 0 15 0;
#X connect 9 1 10 0;
#X connect 10 0 16 0;
#X connect 11 0 12 0;
#X connect 12 0 13 0;
#X connect 13 0 14 0;
#X connect 14 0 15 0;
#X connect 15 0 16 0;
#X connect 16 0 4 0;
#X connect 18 0 20 0;
#X connect 20 0 0 0;
