#N canvas 827 239 527 327 12;
#X obj 32 24 inlet~;
#X obj 54 552 outlet~;
#X obj 54 478 single_channel_processing;
#X obj 254 478 single_channel_processing;
#X obj 172 24 inlet~;
#X obj 254 552 outlet~;
#X obj 120 258 list split 25, f 78;
#X obj 54 218 list split 1, f 22;
#X floatatom 54 258 5 0 0 1 itd - - 12;
#X listbox 120 298 12 0 0 1 left\ channel\ coefficients - - 16;
#X listbox 380 298 12 0 0 1 right\ channel\ coefficients - - 16;
#X text 86 94 Parameters for a given azimuth and elevation \, from "https://github.com/Ircam-RnD/binauralModeled/blob/gh-pages/examples/snd/complete_hrtf_modeled.js#L5167";
#N canvas 352 175 330 235 delay-writer-left 0;
#X obj 96 85 inlet~;
#X obj 96 158 outlet~;
#X obj 116 122 delwrite~ \$0-left 2;
#X connect 0 0 1 0;
#X connect 0 0 2 0;
#X restore 32 56 pd delay-writer-left;
#N canvas 352 175 330 235 delay-writer-right 0;
#X obj 96 85 inlet~;
#X obj 96 158 outlet~;
#X obj 116 122 delwrite~ \$0-right 2;
#X connect 0 0 1 0;
#X connect 0 0 2 0;
#X restore 172 56 pd delay-writer-right;
#X obj 54 300 / 2;
#X obj 254 352 * -1;
#N canvas 733 172 450 300 delay-reader-left 0;
#X floatatom 37 76 4 0 100 1 delay\ in\ samples - - 0;
#X obj 39 104 / 44.1;
#X obj 39 170 pack 0 30;
#X obj 39 216 line~;
#X obj 39 253 delread4~ \$0-left;
#X floatatom 37 144 4 0 100 1 delay_in_ms - - 0;
#X obj 95 104 + 1;
#X text 135 103 offset to ensure delays are positive;
#X obj 95 27 inlet;
#X obj 39 285 outlet~;
#X connect 0 0 1 0;
#X connect 1 0 5 0;
#X connect 2 0 3 0;
#X connect 3 0 4 0;
#X connect 4 0 9 0;
#X connect 5 0 2 0;
#X connect 6 0 5 0;
#X connect 8 0 6 0;
#X restore 54 392 pd delay-reader-left;
#N canvas 733 172 450 300 delay-reader-right 0;
#X floatatom 22 62 4 0 100 1 delay\ in\ samples - - 0;
#X obj 24 90 / 44.1;
#X obj 24 156 pack 0 30;
#X obj 24 202 line~;
#X floatatom 22 130 4 0 100 1 delay_in_ms - - 0;
#X obj 24 239 delread4~ \$0-right;
#X obj 81 90 + 1;
#X text 114 89 offset to ensure delays are positive;
#X obj 81 20 inlet;
#X obj 24 268 outlet~;
#X connect 0 0 1 0;
#X connect 1 0 4 0;
#X connect 2 0 3 0;
#X connect 3 0 5 0;
#X connect 4 0 2 0;
#X connect 5 0 9 0;
#X connect 6 0 4 0;
#X connect 8 0 6 0;
#X restore 254 392 pd delay-reader-right;
#N canvas 733 172 450 300 test_parameters 0;
#X obj 91 452 outlet;
#X text 752 91 Azimuth -180 \, elevation -30;
#X text 779 174 Azimuth -72 \, elevation -30;
#X text 836 359 Azimuth 19 \, elevation -40;
#X text 810 268 Azimuth 108 \, elevation -30;
#X msg 91 69 0 0.5464 -0.85287 0.31884 -1.2673 0.50382 -1.9522 0.9589 -1.9329 0.94061 -0.88747 0.77594 0.12334 0.46771 0.39241 0.82353 -0.17627 0.57129 -1.98 0.98055 -1.9819 0.98243 -1.9452 0.9891 -1.9433 0.98716 0.5464 -0.85287 0.31884 -1.2673 0.50382 -1.9522 0.9589 -1.9329 0.94061 -0.88747 0.77594 0.12334 0.46771 0.39241 0.82353 -0.17627 0.57129 -1.98 0.98055 -1.9819 0.98243 -1.9452 0.9891 -1.9433 0.98716, f 93;
#X msg 118 145 -0.43794 1.5078 -1.9323 0.93265 -1.9042 0.90513 -1.8861 0.92157 -1.893 0.92549 -1.7789 0.88318 -1.7924 0.8863 -0.34799 0.18686 -1.0169 0.68513 -1.0665 0.87004 -0.50545 0.65081 0.29788 0.8265 0.52459 0.62775 0.13097 -0.54083 0.45294 -1.1816 0.29413 -1.9505 0.95317 -1.9529 0.95531 -1.7949 0.91639 -1.7967 0.93287 -1.9465 0.9809 -1.9337 0.96862 -1.0759 0.77014 -0.96897 0.82103 -1.9816 0.98781 -1.9805 0.98657, f 93;
#X msg 151 239 0.52766 0.10199 -0.50391 -0.46489 -1.9027 0.90443 -1.6663 0.79551 -1.5777 0.73189 -1.7984 0.85682 -1.781 0.86293 -0.94236 0.81033 -0.53715 0.5412 -1.9539 0.9724 -1.9589 0.97787 -1.9723 0.98062 -1.9742 0.98303 1.4461 -0.80174 -0.067374 -1.3807 0.46326 -1.9632 0.96333 -1.9517 0.95201 -1.457 0.76906 -1.0765 0.63971 0.4081 0.83034 0.20759 0.42984 -0.90823 0.79768 -0.37658 0.5895 -1.961 0.97998 -1.9627 0.98156, f 93;
#X msg 177 330 0.10567 0.37714 -0.40639 -0.014319 -1.4655 0.63939 -1.8005 0.92416 -1.7273 0.84994 -1.242 0.86829 -1.0056 0.70301 -1.9777 0.98151 -1.9758 0.97985 -1.948 0.98154 -1.9448 0.97832 -0.42991 0.88375 0.001608 0.78231 0.9612 -1.8626 0.86605 -1.8182 0.82412 -1.6951 0.86622 -1.5889 0.77802 -1.2551 0.90712 -1.0606 0.58899 -0.40467 0.91903 -0.4931 0.60915 -1.9687 0.98641 -1.9693 0.98702 0.54193 0.69011 0.34629 0.77808, f 93;
#X connect 5 0 0 0;
#X connect 6 0 0 0;
#X connect 7 0 0 0;
#X connect 8 0 0 0;
#X restore 86 175 pd test_parameters;
#X text 86 151 In the format: <itd> <iir_coeffs_left> <iir_coeffs_right>, f 49;
#X connect 0 0 12 0;
#X connect 0 1 7 0;
#X connect 2 0 1 0;
#X connect 3 0 5 0;
#X connect 4 0 13 0;
#X connect 6 0 9 0;
#X connect 6 1 10 0;
#X connect 7 0 8 0;
#X connect 7 1 6 0;
#X connect 8 0 14 0;
#X connect 9 0 2 0;
#X connect 10 0 3 0;
#X connect 14 0 15 0;
#X connect 14 0 16 0;
#X connect 15 0 17 0;
#X connect 16 0 2 0;
#X connect 17 0 3 0;
#X connect 18 0 7 0;
